$MeshFormat
4.1 0 8
$EndMeshFormat
$PhysicalNames
5
1 1 "bottom"
1 2 "outer"
1 3 "top"
1 4 "inner"
2 5 "solid"
$EndPhysicalNames
$Entities
4 4 1 0
1 0.06 0 0 0 
2 0.12 0 0 0 
3 0.12 0.05 0 0 
4 0.06 0.05 0 0 
1 0.06 0 0 0.12 0 0 1 1 2 1 -2 
2 0.12 0 0 0.12 0.05 0 1 2 2 2 -3 
3 0.06 0.05 0 0.12 0.05 0 1 3 2 3 -4 
4 0.06 0 0 0.06 0.05 0 1 4 2 4 -1 
1 0.06 0 0 0.12 0.05 0 1 5 4 1 2 3 4 
$EndEntities
$Nodes
9 87 1 87
0 1 0 1
1
0.06 0 0
0 2 0 1
2
0.12 0 0
0 3 0 1
3
0.12 0.05 0
0 4 0 1
4
0.06 0.05 0
1 1 0 7
5
6
7
8
9
10
11
0.06749999999998475 0 0
0.07499999999996136 0 0
0.08249999999994342 0 0
0.08999999999991735 0 0
0.09749999999994005 0 0
0.10499999999996 0 0
0.11249999999998 0 0
1 2 0 6
12
13
14
15
16
17
0.12 0.007142857142844034 0
0.12 0.01428571428567999 0
0.12 0.02142857142851528 0
0.12 0.02857142857137185 0
0.12 0.03571428571424797 0
0.12 0.04285714285712332 0
1 3 0 7
18
19
20
21
22
23
24
0.1125000000000129 0.05 0
0.1050000000000366 0.05 0
0.09750000000005488 0.05 0
0.09000000000008129 0.05 0
0.08250000000005893 0.05 0
0.07500000000003929 0.05 0
0.06750000000001964 0.05 0
1 4 0 6
25
26
27
28
29
30
0.06 0.0428571428571626 0
0.06 0.03571428571432519 0
0.06 0.02857142857148779 0
0.06 0.02142857142863045 0
0.06 0.01428571428575356 0
0.06 0.007142857142877455 0
2 1 0 57
31
32
33
34
35
36
37
38
39
40
41
42
43
44
45
46
47
48
49
50
51
52
53
54
55
56
57
58
59
60
61
62
63
64
65
66
67
68
69
70
71
72
73
74
75
76
77
78
79
80
81
82
83
84
85
86
87
0.09625928227742325 0.02515046299714511 0
0.07872886937507986 0.01740097249936726 0
0.0759315923009144 0.03400397094117544 0
0.106214978045352 0.03653847410237326 0
0.1058212084271869 0.01449051886780187 0
0.08848549423872067 0.03787833715129247 0
0.09092955540027367 0.01301001862095788 0
0.1094319745441842 0.02499999999994356 0
0.07021079789386514 0.0107142857143155 0
0.06999785668650145 0.02500000000005912 0
0.08442165034002921 0.02692907022779586 0
0.06923912285801788 0.04071582673699286 0
0.07939604295202932 0.008844737803565598 0
0.09805570298167623 0.04057750603659649 0
0.09824411437704879 0.009559142402931467 0
0.08165257686863878 0.04080377336246092 0
0.1103431926829034 0.04155150257935423 0
0.111190947158022 0.008264047015518727 0
0.06755358222735726 0.03274097544277491 0
0.1131796228215791 0.01864586658045621 0
0.1128969221071741 0.03156407881450857 0
0.09764272549055444 0.01720815368671967 0
0.06694875110809193 0.01815429188188319 0
0.09788285407642251 0.03255510287947424 0
0.08516798401595571 0.02004130823137524 0
0.1029266743204712 0.02236854303602768 0
0.08655835652508866 0.006837691107962582 0
0.0778792231995163 0.02604560481212333 0
0.104357747959577 0.04347481511565191 0
0.1048599614107064 0.006513030589762341 0
0.09046730255466551 0.03103346853925565 0
0.08291009110321387 0.03339449282722275 0
0.08723034083907805 0.04475399758481299 0
0.0751582206121361 0.04368339754378745 0
0.1044419965907788 0.02904709156853714 0
0.0926464052604537 0.005881370426370386 0
0.08415616165368545 0.01322694565264571 0
0.06611178175664977 0.006051299415916932 0
0.0919385482403154 0.01967571572314164 0
0.0723264320757955 0.005371577338273057 0
0.1152401049759735 0.02501530214244193 0
0.09327186923113581 0.04461508668820372 0
0.07344687779327705 0.01551998696842825 0
0.06450134302958357 0.02504660908609305 0
0.06448574185308646 0.04463172063376255 0
0.1078398700283554 0.02012623212105733 0
0.06465426615172136 0.01126968968814933 0
0.08943285427542147 0.0245611240867736 0
0.0640241345890659 0.03928571428574389 0
0.07284056360357234 0.0294476377990332 0
0.1145575116737572 0.03782275731481884 0
0.1148120028891858 0.0128121186209887 0
0.1149992014575793 0.04518860556151512 0
0.1152269811291419 0.004645598385817399 0
0.1087109521005815 0.04607347423870035 0
0.07350072346453848 0.02066719151012255 0
0.09423770027507777 0.03641978666087013 0
$EndNodes
$Elements
5 172 1 172
1 1 1 8
1 1 5 
2 5 6 
3 6 7 
4 7 8 
5 8 9 
6 9 10 
7 10 11 
8 11 2 
1 2 1 7
9 2 12 
10 12 13 
11 13 14 
12 14 15 
13 15 16 
14 16 17 
15 17 3 
1 3 1 8
16 3 18 
17 18 19 
18 19 20 
19 20 21 
20 21 22 
21 22 23 
22 23 24 
23 24 4 
1 4 1 7
24 4 25 
25 25 26 
26 26 27 
27 27 28 
28 28 29 
29 29 30 
30 30 1 
2 1 2 142
31 11 48 60 
32 20 44 59 
33 6 43 70 
34 6 7 43 
35 32 55 58 
36 42 24 75 
37 55 41 58 
38 24 42 64 
39 33 58 62 
40 39 43 73 
41 10 11 60 
42 45 9 60 
43 43 32 73 
44 54 31 65 
45 33 42 49 
46 58 41 62 
47 31 56 65 
48 42 33 64 
49 46 22 64 
50 9 10 60 
51 19 20 59 
52 37 45 52 
53 23 24 64 
54 34 44 54 
55 33 46 64 
56 45 35 52 
57 22 23 64 
58 47 34 81 
59 35 48 82 
60 50 35 82 
61 34 51 81 
62 43 39 70 
63 26 27 49 
64 44 34 59 
65 43 7 57 
66 72 36 87 
67 52 35 56 
68 44 20 72 
69 63 36 72 
70 51 34 65 
71 32 43 67 
72 38 51 65 
73 22 46 63 
74 35 45 60 
75 49 27 74 
76 13 14 50 
77 15 16 51 
78 45 37 66 
79 46 33 62 
80 36 46 62 
81 68 5 70 
82 34 47 59 
83 9 45 66 
84 48 35 60 
85 56 35 76 
86 28 29 53 
87 30 1 68 
88 48 11 84 
89 40 49 74 
90 46 36 63 
91 1 5 68 
92 5 6 70 
93 58 33 80 
94 31 52 56 
95 44 72 87 
96 31 54 61 
97 33 49 80 
98 21 22 63 
99 41 61 62 
100 61 36 62 
101 37 52 69 
102 81 17 83 
103 12 82 84 
104 15 51 71 
105 50 14 71 
106 7 8 57 
107 26 49 79 
108 51 38 71 
109 38 50 71 
110 34 54 65 
111 28 53 74 
112 49 42 79 
113 53 40 74 
114 47 81 83 
115 82 48 84 
116 40 53 86 
117 55 32 67 
118 37 57 66 
119 35 50 76 
120 49 40 80 
121 16 17 81 
122 12 13 82 
123 53 29 77 
124 52 31 69 
125 13 50 82 
126 51 16 81 
127 39 53 77 
128 24 4 75 
129 8 9 66 
130 43 57 67 
131 4 25 75 
132 57 37 67 
133 61 54 87 
134 39 68 70 
135 55 37 69 
136 54 44 87 
137 50 38 76 
138 53 39 73 
139 37 55 67 
140 56 38 65 
141 11 2 84 
142 3 18 83 
143 41 55 78 
144 53 73 86 
145 57 8 66 
146 17 3 83 
147 2 12 84 
148 40 58 80 
149 29 30 77 
150 20 21 72 
151 36 61 87 
152 38 56 76 
153 14 15 71 
154 27 28 74 
155 18 19 85 
156 25 26 79 
157 58 40 86 
158 32 58 86 
159 59 47 85 
160 21 63 72 
161 19 59 85 
162 30 68 77 
163 31 61 78 
164 61 41 78 
165 55 69 78 
166 47 83 85 
167 83 18 85 
168 69 31 78 
169 68 39 77 
170 75 25 79 
171 42 75 79 
172 73 32 86 
$EndElements
